#!OML:ASF E:\emotionWalksFemale\Project 1\Capture day 1\Session 1\Female1.ASF
:FULLY-SPECIFIED
:DEGREES
807
root -0.781041 15.602 -11.5232 176.711 -50.0547 -185.829
lowerback 4.02679 -0.858831 2.89834
upperback -6.05502 -0.953054 2.17874
thorax -8.64589 -0.655066 0.799445
lowerneck -13.9225 -3.0545 -5.64468
upperneck 21.4407 -5.09151 6.96213
head 9.36661 -2.29744 2.68881
rclavicle -8.74653e-015 9.54166e-015
rhumerus 22.4655 6.59575 -47.2315
rradius 25.9399
rwrist 25.3309
rhand -10.589 -47.7774
rfingers 7.12502
rthumb -164.584 102.817
lclavicle -8.74653e-015 9.54166e-015
lhumerus 24.7285 -12.4474 60.519
lradius 25.5742
lwrist -36.6377
lhand -9.17419 -42.0741
lfingers 7.12502
lthumb 16.7788 -12.7791
rfemur 9.64446 17.0864 30.9217
rtibia 21.5499
rfoot -12.1057 -29.7174
rtoes 20.7504
lfemur -14.4735 -8.15721 -16.8922
ltibia 35.07
lfoot -20.518 13.9681
ltoes -16.633
808
root -0.850597 15.6142 -11.5817 176.699 -49.4535 -185.849
lowerback 4.13212 -0.867411 2.95012
upperback -6.07261 -0.959559 2.10594
thorax -8.7297 -0.66449 0.697327
lowerneck -13.8725 -3.03905 -5.23467
upperneck 21.4884 -5.11885 6.69579
head 9.35782 -2.30984 2.52385
rclavicle -1.02175e-013 -4.92986e-014
rhumerus 22.6319 5.90226 -48.1419
rradius 25.6549
rwrist 26.4102
rhand -10.3952 -47.3512
rfingers 7.12502
rthumb -164.397 103.258
lclavicle -1.02175e-013 -4.92986e-014
lhumerus 25.2519 -8.0014 63.925
lradius 23.3058
lwrist -42.3424
lhand -9.58134 -43.3371
lfingers 7.12502
lthumb 16.3868 -14.0093
rfemur 9.97352 16.7304 30.8114
rtibia 21.47
rfoot -12.2183 -29.0486
rtoes 21.5332
lfemur -14.7805 -8.28512 -16.8542
ltibia 34.3466
lfoot -19.9805 14.63
ltoes -22.1638
809
root -0.919561 15.6239 -11.6437 176.568 -48.7971 -185.823
lowerback 4.19445 -0.834859 2.97826
upperback -6.00928 -0.91035 2.08955
thorax -8.69758 -0.64089 0.658049
lowerneck -13.8387 -3.0739 -5.26315
upperneck 21.5632 -5.18609 6.72494
head 9.38366 -2.34493 2.53063
rclavicle -1.74931e-014 -3.18055e-015
rhumerus 22.79 5.74957 -48.4351
rradius 25.5639
rwrist 26.6119
rhand -10.4778 -47.4652
rfingers 7.12502
rthumb -164.477 103.138
lclavicle -1.74931e-014 -3.18055e-015
lhumerus 24.2905 -16.9423 56.6949
lradius 28.0273
lwrist -31.1976
lhand -8.78833 -40.1869
lfingers 7.12502
lthumb 17.1502 -10.9238
rfemur 10.4601 16.6625 30.8794
rtibia 21.3663
rfoot -12.125 -28.5996
rtoes 22.0452
lfemur -14.9186 -8.83426 -16.7676
ltibia 33.6135
lfoot -19.9838 15.4559
ltoes -24.1275
810
root -0.98898 15.6336 -11.7066 176.308 -48.1401 -185.691
lowerback 4.21003 -0.80166 3.02979
upperback -5.8529 -0.856102 2.13299
thorax -8.53596 -0.611531 0.664674
lowerneck -14.0652 -3.14479 -5.70155
upperneck 21.7191 -5.23357 6.93241
head 9.50157 -2.37564 2.66977
rclavicle 6.04305e-014 0
rhumerus 23.0487 5.83473 -48.396
rradius 25.568
rwrist 26.3082
rhand -10.8318 -47.5912
rfingers 7.12502
rthumb -164.817 102.986
lclavicle 6.04305e-014 0
lhumerus 24.3688 -17.2968 56.3115
lradius 28.0933
lwrist -30.777
lhand -8.98098 -40.1571
lfingers 7.12502
lthumb 16.9647 -10.878
rfemur 11.0205 16.7762 31.1044
rtibia 21.2663
rfoot -11.7059 -28.274
rtoes 21.7042
lfemur -14.9211 -9.84208 -16.5933
ltibia 32.8673
lfoot -20.6424 16.3186
ltoes -23.3668
811
root -1.05905 15.6454 -11.7684 176.14 -47.5157 -185.549
lowerback 4.2186 -0.889413 2.72189
upperback -5.77419 -0.984138 2.43574
thorax -8.44556 -0.644609 1.16962
lowerneck -14.2701 -3.06362 -6.00571
upperneck 21.8786 -5.02724 6.87433
head 9.58721 -2.30458 2.72747
rclavicle 9.18385e-014 -2.54444e-014
rhumerus 23.5012 6.72529 -47.9683
rradius 25.7748
rwrist 25.7948
rhand -11.4856 -47.1358
rfingers 7.12502
rthumb -165.447 103.395
lclavicle 9.18385e-014 -2.54444e-014
lhumerus 24.1779 -14.8869 58.1405
lradius 26.9116
lwrist -33.276
lhand -9.14605 -40.9939
lfingers 7.12502
lthumb 16.8059 -11.7012
rfemur 11.4727 16.9873 31.3032
rtibia 21.1592
rfoot -11.433 -28.0071
rtoes 21.8344
lfemur -15.0532 -10.6934 -16.4444
ltibia 32.135
lfoot -20.7312 17.5912
ltoes -25.7282
812
root -1.12869 15.6585 -11.8259 176.11 -46.9021 -185.493
lowerback 4.27817 -1.02524 2.36137
upperback -5.79474 -1.18298 2.69567
thorax -8.48999 -0.713246 1.67177
lowerneck -14.1667 -2.8323 -5.81537
upperneck 21.8907 -4.69461 6.62709
head 9.53602 -2.16401 2.6528
rclavicle -3.10104e-014 -3.81667e-014
rhumerus 23.8881 8.20125 -47.3312
rradius 26.151
rwrist 25.015
rhand -11.826 -46.7095
rfingers 7.12502
rthumb -165.775 103.798
lclavicle -3.10104e-014 -3.81667e-014
lhumerus 23.1828 -16.5237 56.5593
lradius 28.7142
lwrist -30.4938
lhand -8.6015 -39.9892
lfingers 7.12502
lthumb 17.33 -10.7418
rfemur 11.8015 17.0285 31.3123
rtibia 21.0398
rfoot -11.282 -27.6083
rtoes 22.3323
lfemur -15.2916 -11.5639 -16.323
ltibia 31.4475
lfoot -21.2126 18.2142
ltoes -25.7396
813
root -1.19784 15.672 -11.8791 176.116 -46.2819 -185.465
lowerback 4.30999 -1.06413 2.38611
upperback -5.80218 -1.23306 2.70005
thorax -8.51694 -0.73985 1.66974
lowerneck -13.9534 -2.74995 -5.65694
upperneck 21.7813 -4.61094 6.56459
head 9.44606 -2.12562 2.61527
rclavicle 5.20816e-014 -5.725e-014
rhumerus 24.0772 8.85059 -47.2181
rradius 26.319
rwrist 24.7491
rhand -11.7564 -46.6177
rfingers 7.12502
rthumb -165.708 103.894
lclavicle 5.20816e-014 -5.725e-014
lhumerus 23.3639 -15.5804 57.1715
lradius 27.6424
lwrist -31.3949
lhand -8.71921 -40.3767
lfingers 7.12502
lthumb 17.2167 -11.1194
rfemur 12.0232 16.6824 31.1217
rtibia 20.9317
rfoot -10.6717 -26.8725
rtoes 21.2357
lfemur -15.5495 -12.2918 -16.1909
ltibia 30.795
lfoot -22.107 18.2453
ltoes -23.1591
814
root -1.26716 15.6863 -11.9317 176.082 -45.5966 -185.334
lowerback 4.18747 -0.979465 2.71008
upperback -5.72061 -1.10488 2.59506
thorax -8.36624 -0.699653 1.35637
lowerneck -13.9278 -2.89685 -5.88848
upperneck 21.7182 -4.839 6.8611
head 9.44869 -2.22236 2.72799
rclavicle 1.55052e-014 -7.79236e-014
rhumerus 24.1987 8.77401 -47.329
rradius 26.3012
rwrist 24.7989
rhand -11.4219 -46.7802
rfingers 7.12502
rthumb -165.386 103.755
lclavicle 1.55052e-014 -7.79236e-014
lhumerus 23.6152 -16.0435 56.7339
lradius 27.647
lwrist -30.8793
lhand -8.66273 -40.2238
lfingers 7.12502
lthumb 17.2711 -10.9713
rfemur 12.1931 16.4305 31.0053
rtibia 20.8391
rfoot -9.74975 -26.0973
rtoes 19.2926
lfemur -15.8412 -12.88 -15.9844
ltibia 30.1737
lfoot -22.643 18.6373
ltoes -20.9218
815
root -1.33682 15.7018 -11.9862 175.958 -44.985 -185.161
lowerback 4.10186 -0.95065 3.00385
upperback -5.54868 -1.04899 2.5361
thorax -8.13699 -0.687796 1.11566
lowerneck -14.295 -2.95347 -6.03557
upperneck 21.8036 -4.90724 7.03497
head 9.56133 -2.23724 2.80284
rclavicle -1.98785e-014 -5.24792e-014
rhumerus 24.5387 8.69786 -47.3494
rradius 26.2375
rwrist 24.8024
rhand -11.0848 -46.9169
rfingers 7.12502
rthumb -165.061 103.642
lclavicle -1.98785e-014 -5.24792e-014
lhumerus 23.9943 -16.2841 56.4053
lradius 27.5793
lwrist -30.5712
lhand -8.50515 -39.878
lfingers 7.12502
lthumb 17.4227 -10.6388
rfemur 12.4675 16.3057 31.0274
rtibia 20.7801
rfoot -9.23047 -25.503
rtoes 18.7227
lfemur -16.0847 -13.6574 -15.7782
ltibia 29.581
lfoot -22.6878 19.5801
ltoes -19.58
816
root -1.40633 15.7194 -12.0438 175.923 -44.4514 -185.153
lowerback 4.07122 -0.951712 3.12028
upperback -5.43433 -1.04671 2.40786
thorax -7.99997 -0.693094 0.910559
lowerneck -14.3563 -3.02984 -5.98375
upperneck 21.7428 -5.0872 7.27869
head 9.57064 -2.29153 2.85444
rclavicle 8.34896e-015 3.33958e-014
rhumerus 24.6345 8.65503 -47.5329
rradius 26.2391
rwrist 24.8841
rhand -11.3444 -46.6737
rfingers 7.12502
rthumb -165.311 103.867
lclavicle 8.34896e-015 3.33958e-014
lhumerus 24.105 -16.1195 56.421
lradius 27.515
lwrist -30.8391
lhand -8.222 -39.8569
lfingers 7.12502
lthumb 17.6952 -10.6421
rfemur 12.7721 16.1181 30.9381
rtibia 20.7722
rfoot -8.75338 -24.9692
rtoes 18.0663
lfemur -16.2582 -14.6989 -15.6891
ltibia 29.0012
lfoot -22.8667 20.4083
ltoes -17.4181
